<svg xmlns="http://www.w3.org/2000/svg" viewBox="0 0 512 512"><path fill="#fff" fill-rule="evenodd" d="M 234.5 35 L 278.5 35 L 279.5 36 L 289.5 36 L 290.5 37 L 297.5 37 L 298.5 38 L 304.5 38 L 305.5 39 L 310.5 39 L 311.5 40 L 325.5 42 L 326.5 43 L 337.5 45 L 341.5 47 L 347.5 47 L 359.5 51 L 362.5 53 L 370.5 55 L 377.5 59 L 381.5 59 L 401.5 70 L 406.5 71 Q 411.7 76.6 419 79 Q 417.9 81.7 420.5 81 L 427.5 85 L 435.5 93 Q 440.9 94.1 443 98.5 L 448.5 105 L 453 108.5 L 456 114.5 L 465 125.5 L 466 129.5 L 474 145.5 L 474 148.5 L 477 156.5 L 477 161.5 L 478 162.5 L 478 186.5 L 477 187.5 L 477 193.5 L 476 194.5 L 474 207.5 L 470 217.5 L 470 220.5 L 466 228.5 L 465 235.5 L 454 258.5 L 453 264.5 L 449 270.5 L 446 279.5 L 444 281.5 L 443 288.5 L 439 296.5 L 439 299.5 L 437 303.5 L 437 308.5 L 436 309.5 L 436 318.5 L 437 319.5 L 437 329.5 L 438 330.5 L 438 335.5 L 439 336.5 L 440 343.5 L 443 350.5 L 445 359.5 L 447 361.5 L 447 364.5 L 449 368.5 Q 448 372.5 450 373.5 L 450 383.5 Q 444.1 391.1 435.5 396 L 432.5 396 L 430.5 398 L 414.5 406 L 403.5 409 L 393.5 414 L 385.5 416 L 383.5 418 L 380.5 419 L 375.5 419 Q 372.4 422 367 422 L 367 477.5 L 366.5 478 L 146 478 L 146 422.5 Q 146.3 421.8 143.5 422 L 137.5 419 L 132.5 419 L 126.5 416 L 113.5 412 L 110.5 410 L 96.5 406 L 82.5 399 L 80.5 397 L 72.5 394 L 65 386.5 L 63 383.5 L 63 371.5 L 64 370.5 L 65 362.5 L 70 352.5 L 70 349.5 L 75 334.5 Q 73.8 329.8 76 328.5 L 76 318.5 L 77 317.5 L 77 306.5 L 76 305.5 L 75 291.5 L 70 276.5 L 69 269.5 L 63 256.5 L 59 250.5 L 59 247.5 L 47 225.5 L 47 222.5 L 44 217.5 L 43 212.5 L 40 207.5 L 40 204.5 L 37 197.5 L 36 187.5 L 35 186.5 L 35 162.5 L 36 161.5 L 36 156.5 L 37 155.5 L 37 152.5 L 39 148.5 L 40 142.5 L 47 129.5 L 47 127.5 L 63.5 105 L 70 99.5 L 74.5 94 L 77.5 93 L 89.5 82 L 94 81 Q 92.9 78.3 95.5 79 L 108.5 70 L 111.5 70 L 128.5 60 L 135.5 59 L 142.5 55 L 150.5 53 L 153.5 51 L 165.5 47 L 171.5 47 L 175.5 45 L 178.5 45 L 187.5 42 L 191.5 42 L 192.5 41 L 196.5 41 L 197.5 40 L 201.5 40 L 202.5 39 L 208.5 39 L 209.5 38 L 222.5 37 L 223.5 36 L 233.5 36 L 234.5 35 Z M 171 201 L 170 202 L 164 202 L 154 205 L 152 207 L 144 210 L 140 213 Q 141 215 139 214 L 128 225 Q 126 232 122 237 L 119 246 L 119 253 L 118 254 L 119 268 L 122 277 L 128 287 L 128 289 L 139 299 Q 141 298 140 301 L 144 303 L 152 306 L 154 308 L 164 311 L 170 311 L 171 312 L 185 311 L 194 308 L 210 299 L 210 298 Q 218 292 222 284 L 222 281 L 225 277 L 228 268 L 228 261 L 229 260 L 228 246 L 225 237 L 222 233 L 222 230 L 219 225 L 210 216 L 210 214 L 194 205 L 185 202 L 171 201 Z M 337 201 L 336 202 L 329 202 L 320 205 L 303 214 L 303 216 Q 295 221 291 230 L 291 233 L 288 237 L 285 246 L 285 253 L 284 254 L 285 268 L 288 277 L 291 281 L 291 284 L 294 289 L 303 298 L 303 299 L 320 308 L 329 311 L 336 311 L 337 312 L 343 312 L 344 311 L 354 310 L 360 308 L 362 306 L 370 303 L 373 301 Q 372 298 375 299 L 384 290 L 384 288 L 390 279 L 394 268 L 394 261 L 395 260 L 394 246 L 391 237 L 384 226 L 384 224 L 375 214 Q 372 215 373 213 L 370 210 L 362 207 L 360 205 L 354 203 L 344 202 L 343 201 L 337 201 Z M 257 298 L 248 303 L 233 323 Q 234 327 231 326 Q 228 336 222 344 L 222 348 L 219 353 L 215 366 L 215 381 L 216 382 L 216 389 L 217 392 L 220 394 Q 223 393 224 395 L 290 395 Q 290 393 294 394 L 296 392 L 297 389 L 297 381 L 298 380 L 298 367 Q 296 366 297 362 L 294 353 L 291 348 L 291 344 L 282 328 Q 283 325 280 326 L 280 323 L 269 309 L 268 306 L 262 300 L 257 298 Z "/></svg>